<svg width="14" height="19" viewBox="0 0 14 19" fill="none" xmlns="http://www.w3.org/2000/svg">
<path d="M7 17.8929L6.67857 17.5C6.46429 17.2143 1 10.8214 1 7C1 3.67857 3.71429 1 7 1C10.2857 1 13 3.71429 13 7C13 10.8214 7.53571 17.25 7.32143 17.5L7 17.8929ZM7 1.82143C4.14286 1.82143 1.85714 4.14286 1.85714 6.96429C1.85714 9.96429 5.82143 15.0714 7 16.5357C8.17857 15.0714 12.1429 10 12.1429 6.96429C12.1429 4.14286 9.85714 1.82143 7 1.82143Z" fill="#939393" stroke="#939393" stroke-width="0.5"/>
<path d="M6.99958 9.28578C5.74958 9.28578 4.71387 8.25007 4.71387 7.00007C4.71387 5.75007 5.74958 4.71436 6.99958 4.71436C8.24958 4.71436 9.2853 5.75007 9.2853 7.00007C9.2853 8.25007 8.24958 9.28578 6.99958 9.28578ZM6.99958 5.5715C6.21387 5.5715 5.57101 6.21436 5.57101 7.00007C5.57101 7.78578 6.21387 8.42864 6.99958 8.42864C7.7853 8.42864 8.42815 7.78578 8.42815 7.00007C8.42815 6.21436 7.7853 5.5715 6.99958 5.5715Z" fill="#939393" stroke="#939393" stroke-width="0.5"/>
</svg>
